<svg xmlns="http://www.w3.org/2000/svg" width="1080" height="470" viewBox="0 0 1080 470" role="img" aria-label="中央连接 · 环覆结构示意"><style>text{font-family:'Microsoft YaHei',sans-serif}.hide-guides .guide{display:none}</style><rect width="1080" height="470" fill="#faf8f3"/><text x="30" y="38" font-size="24" fill="#243d42">中央连接 · 环覆</text><text x="30" y="65" font-size="14" fill="#657276">沿太阳穴向后包覆；俯视用于解释弧向长度。</text><g transform="translate(0 86)"><path d="M154 234 L151 273 L122 285 L236 285 L208 272 L204 234" fill="#e5d4c6"/>
<ellipse cx="180" cy="158" rx="72" ry="102" fill="#eee2d6" stroke="#c9b8aa"/>
<path d="M110 132 Q92 58 179 43 Q266 52 251 133 Q245 75 185 74 Q132 67 110 132" fill="#d9d4cd"/>
<path d="M179 160 L172 187 Q180 192 187 186 M164 212 Q181 220 196 211" fill="none" stroke="#bb9f8c" stroke-width="2"/>
<path d="M110 141 Q90 133 104 175 M250 141 Q269 133 255 175" fill="none" stroke="#c9b8aa" stroke-width="4"/><g class="guide"><path d="M112 129 Q180 115 248 130" fill="none" stroke="#a78e72" stroke-width="2" stroke-dasharray="3 5"/></g><polygon points="145.3,148.5 134.4,151.9 123.6,149.3 121.4,147.3 118.6,148.5 111.5,146.2 104.0,144.0 113.2,139.1 115.3,140.6 120.5,136.4 128.9,132.9 144.7,134.9" fill="#4e747b"/><path d="M136.0,142.4 L118.3,143.3" stroke="#aec3c2" stroke-width=".65" opacity=".7"/><polygon points="143.0,151.4 132.6,155.9 121.7,154.4 119.4,152.6 116.8,154.0 109.6,152.5 102.0,151.0 110.5,145.2 112.8,146.5 117.4,141.9 125.3,137.5 140.9,137.9" fill="#638890"/><path d="M133.2,146.3 L116.0,148.9" stroke="#aec3c2" stroke-width=".65" opacity=".7"/><polygon points="140.6,154.3 130.8,159.8 119.9,159.3 117.4,157.8 114.9,159.5 107.7,158.7 100.0,158.0 107.9,151.4 110.2,152.4 114.3,147.4 121.7,142.2 137.2,141.1" fill="#78999d"/><path d="M130.4,150.2 L113.7,154.5" stroke="#aec3c2" stroke-width=".65" opacity=".7"/><polygon points="138.2,157.1 129.0,163.6 118.0,164.3 115.4,163.0 113.1,165.0 105.7,164.9 98.0,165.0 105.2,157.6 107.7,158.4 111.2,152.9 118.1,147.0 133.5,144.3" fill="#517980"/><path d="M127.6,154.1 L111.3,160.1" stroke="#aec3c2" stroke-width=".65" opacity=".7"/><polygon points="135.8,159.8 127.1,167.3 116.1,169.2 113.4,168.2 111.2,170.4 103.8,171.1 96.0,172.0 102.6,163.9 105.1,164.4 108.2,158.5 114.6,152.0 129.9,147.6" fill="#658b91"/><path d="M124.9,158.0 L109.0,165.7" stroke="#aec3c2" stroke-width=".65" opacity=".7"/><polygon points="215.3,135.5 226.5,133.2 237.0,136.8 239.0,139.0 241.9,138.1 248.7,141.0 256.0,144.0 246.4,148.0 244.4,146.3 238.9,149.9 230.1,152.6 214.7,149.1" fill="#4e747b"/><path d="M224.0,142.4 L241.7,143.3" stroke="#aec3c2" stroke-width=".65" opacity=".7"/><polygon points="219.0,138.6 230.2,137.4 240.1,142.0 241.8,144.4 244.8,143.8 251.2,147.3 258.0,151.0 248.1,154.0 246.4,152.1 240.6,155.2 231.7,157.1 216.9,152.1" fill="#638890"/><path d="M226.8,146.3 L244.0,148.9" stroke="#aec3c2" stroke-width=".65" opacity=".7"/><polygon points="222.6,141.7 233.9,141.6 243.2,147.3 244.7,149.8 247.6,149.5 253.6,153.7 260.0,158.0 249.9,160.0 248.4,158.0 242.3,160.4 233.4,161.4 219.2,154.9" fill="#78999d"/><path d="M229.6,150.2 L246.3,154.5" stroke="#aec3c2" stroke-width=".65" opacity=".7"/><polygon points="226.2,144.9 237.5,146.0 246.3,152.6 247.5,155.2 250.5,155.2 256.1,160.0 262.0,165.0 251.7,165.9 250.4,163.8 244.1,165.6 235.0,165.6 221.5,157.7" fill="#517980"/><path d="M232.4,154.1 L248.7,160.1" stroke="#aec3c2" stroke-width=".65" opacity=".7"/><polygon points="229.8,148.2 241.1,150.4 249.3,157.9 250.3,160.7 253.3,161.0 258.5,166.4 264.0,172.0 253.6,171.8 252.4,169.5 245.9,170.7 236.7,169.7 223.9,160.4" fill="#658b91"/><path d="M235.1,158.0 L251.1,165.7" stroke="#aec3c2" stroke-width=".65" opacity=".7"/><polygon points="179.5,149.0 163.3,153.6 148.2,149.0 145.4,145.9 141.2,147.0 131.4,142.2 121.0,137.0 134.8,132.9 137.6,135.4 145.6,130.8 158.2,127.1 180.5,130.1" fill="#4e747b"/><path d="M167.0,140.6 L141.6,139.8" stroke="#aec3c2" stroke-width=".65" opacity=".7"/><polygon points="165.5,149.0 150.9,153.6 137.3,149.0 134.8,145.9 131.0,147.0 122.3,142.2 113.0,137.0 125.5,132.9 128.0,135.4 135.2,130.8 146.5,127.1 166.6,130.1" fill="#638890"/><path d="M154.3,140.6 L131.4,139.8" stroke="#aec3c2" stroke-width=".65" opacity=".7"/><polygon points="151.4,149.0 138.4,153.6 126.4,149.0 124.2,145.9 120.9,147.0 113.2,142.2 105.0,137.0 116.1,132.9 118.3,135.4 124.7,130.8 134.9,127.1 152.6,130.1" fill="#78999d"/><path d="M141.6,140.6 L121.3,139.8" stroke="#aec3c2" stroke-width=".65" opacity=".7"/><polygon points="179.5,131.0 195.3,127.7 210.9,131.8 214.0,134.4 218.1,132.6 228.3,135.0 239.0,137.0 225.8,145.1 222.8,143.3 215.4,149.5 203.2,154.4 180.5,149.9" fill="#4e747b"/><path d="M193.0,140.6 L218.4,139.8" stroke="#aec3c2" stroke-width=".65" opacity=".7"/><polygon points="193.5,131.0 207.7,127.7 221.7,131.8 224.5,134.4 228.1,132.6 237.3,135.0 247.0,137.0 235.2,145.1 232.5,143.3 225.9,149.5 215.0,154.4 194.6,149.9" fill="#638890"/><path d="M205.7,140.6 L228.6,139.8" stroke="#aec3c2" stroke-width=".65" opacity=".7"/><polygon points="207.4,131.0 220.0,127.8 232.5,131.8 235.0,134.4 238.2,132.6 246.4,135.0 255.0,137.0 244.7,145.1 242.2,143.3 236.4,149.5 226.8,154.4 208.6,149.9" fill="#78999d"/><path d="M218.4,140.6 L238.7,139.8" stroke="#aec3c2" stroke-width=".65" opacity=".7"/><polygon points="179.7,163.0 163.6,167.9 148.4,163.6 145.5,160.5 141.3,161.7 131.5,157.0 121.0,152.0 134.7,147.7 137.6,150.1 145.4,145.4 158.0,141.4 180.3,144.1" fill="#638890"/><path d="M167.0,154.8 L141.6,154.5" stroke="#aec3c2" stroke-width=".65" opacity=".7"/><polygon points="165.7,163.0 151.1,167.9 137.5,163.6 135.0,160.5 131.2,161.7 122.4,157.0 113.0,152.0 125.4,147.7 127.9,150.1 135.0,145.4 146.3,141.4 166.4,144.1" fill="#78999d"/><path d="M154.3,154.8 L131.5,154.5" stroke="#aec3c2" stroke-width=".65" opacity=".7"/><polygon points="151.6,163.0 138.7,167.9 126.6,163.6 124.4,160.5 121.1,161.7 113.3,157.0 105.0,152.0 116.0,147.7 118.3,150.1 124.6,145.4 134.6,141.4 152.4,144.1" fill="#517980"/><path d="M141.6,154.8 L121.4,154.5" stroke="#aec3c2" stroke-width=".65" opacity=".7"/><polygon points="179.7,145.0 195.5,142.0 211.0,146.3 214.1,149.0 218.2,147.3 228.3,149.8 239.0,152.0 225.7,159.9 222.7,158.1 215.2,164.1 202.9,168.8 180.3,163.9" fill="#638890"/><path d="M193.0,154.8 L218.4,154.5" stroke="#aec3c2" stroke-width=".65" opacity=".7"/><polygon points="193.7,145.0 207.9,142.0 221.8,146.3 224.6,149.0 228.2,147.3 237.4,149.8 247.0,152.0 235.1,159.9 232.4,158.1 225.7,164.1 214.7,168.8 194.4,163.9" fill="#78999d"/><path d="M205.7,154.8 L228.5,154.5" stroke="#aec3c2" stroke-width=".65" opacity=".7"/><polygon points="207.6,145.0 220.2,142.0 232.6,146.3 235.1,149.0 238.3,147.3 246.4,149.8 255.0,152.0 244.5,159.9 242.1,158.1 236.2,164.1 226.5,168.8 208.4,163.9" fill="#517980"/><path d="M218.4,154.8 L238.6,154.5" stroke="#aec3c2" stroke-width=".65" opacity=".7"/><g transform="translate(180 140) scale(1)" fill="#b77757" stroke="#8b563d" stroke-width=".8"><path d="M0,-12 Q-14,-15 -13,-4 L-4,7 L0,12 L5,5 L13,-5 Q11,-15 0,-12Z"/><path d="M-7,-8 L6,6 M6,-8 L-6,5" fill="none" stroke="#f1d9b6" stroke-width="2"/></g><g class="guide"><rect x="119" y="132" width="122" height="30" rx="6" fill="none" stroke="#d76c61" stroke-dasharray="4 4"/><text x="180" y="315" text-anchor="middle" fill="#a7544d" font-size="11">虚线：需被覆盖的区域，非成品纹样</text></g></g><g transform="translate(360 86)"><path d="M163 235 L155 274 L133 285 L239 285 L216 267 L215 228" fill="#e5d4c6"/>
<path d="M179 55 C232 45 265 87 256 151 C260 204 221 253 179 256 Q156 245 147 217 L143 197 L122 188 L143 171 Q126 111 151 74Z" fill="#eee2d6" stroke="#c9b8aa"/>
<path d="M147 129 Q132 76 163 55 Q221 31 251 90 L258 151 Q241 100 203 88 Q166 73 147 129" fill="#d9d4cd"/>
<path d="M224 146 Q252 131 241 176 L229 184" fill="#e5d4c6" stroke="#c9b8aa"/>
<path d="M147 217 Q159 221 174 213" fill="none" stroke="#bb9f8c" stroke-width="2"/><g class="guide"><path d="M112 129 Q180 115 248 130" fill="none" stroke="#a78e72" stroke-width="2" stroke-dasharray="3 5"/></g><polygon points="155.4,147.0 146.7,148.1 139.0,144.6 137.6,142.9 135.3,143.4 130.3,140.7 125.0,138.0 132.6,135.5 134.0,136.9 138.4,134.5 145.2,132.9 156.7,136.5" fill="#4e747b"/><path d="M149.2,141.1 L135.8,139.4" stroke="#aec3c2" stroke-width=".65" opacity=".7"/><polygon points="155.4,151.0 146.2,152.1 137.9,148.6 136.5,146.9 134.1,147.4 128.7,144.7 123.0,142.0 131.0,139.5 132.5,140.9 137.2,138.5 144.4,136.9 156.7,140.5" fill="#638890"/><path d="M148.7,145.1 L134.6,143.4" stroke="#aec3c2" stroke-width=".65" opacity=".7"/><polygon points="155.4,155.0 145.7,156.1 136.9,152.6 135.3,150.9 132.8,151.4 127.1,148.7 121.0,146.0 129.4,143.5 131.0,144.9 135.9,142.5 143.6,140.9 156.6,144.5" fill="#78999d"/><path d="M148.3,149.1 L133.2,147.4" stroke="#aec3c2" stroke-width=".65" opacity=".7"/><polygon points="155.5,159.0 145.2,160.1 135.9,156.7 134.2,154.9 131.5,155.4 125.4,152.7 119.0,150.0 127.9,147.5 129.6,148.9 134.7,146.5 142.8,144.9 156.6,148.5" fill="#517980"/><path d="M147.9,153.1 L131.9,151.4" stroke="#aec3c2" stroke-width=".65" opacity=".7"/><polygon points="208.2,134.6 221.8,141.1 234.6,149.0 236.9,151.3 240.9,150.3 250.0,151.4 260.0,151.0 245.9,158.9 243.3,157.8 235.4,162.0 223.8,162.7 205.7,148.0" fill="#4e747b"/><path d="M217.6,148.8 L240.0,155.4" stroke="#aec3c2" stroke-width=".65" opacity=".7"/><polygon points="210.9,137.8 223.0,145.6 234.2,154.6 236.1,157.1 240.0,156.4 248.5,158.4 258.0,159.0 243.7,165.5 241.4,164.2 233.4,167.6 222.3,167.1 206.9,150.8" fill="#638890"/><path d="M218.1,152.8 L238.5,161.4" stroke="#aec3c2" stroke-width=".65" opacity=".7"/><polygon points="213.6,141.1 224.2,150.0 233.7,160.1 235.2,162.8 239.1,162.6 247.0,165.4 256.0,167.0 241.4,171.9 239.4,170.4 231.3,172.9 220.7,171.3 208.1,153.5" fill="#78999d"/><path d="M218.6,156.6 L237.0,167.3" stroke="#aec3c2" stroke-width=".65" opacity=".7"/><polygon points="216.4,144.5 225.4,154.5 233.3,165.6 234.4,168.4 238.2,168.7 245.5,172.4 254.0,175.0 239.2,178.1 237.4,176.4 229.2,177.9 219.1,175.1 209.3,156.1" fill="#517980"/><path d="M219.0,160.4 L235.5,173.1" stroke="#aec3c2" stroke-width=".65" opacity=".7"/><polygon points="219.1,148.0 226.6,159.1 232.9,171.0 233.6,173.9 237.3,174.7 243.9,179.3 252.0,183.0 237.0,184.2 235.5,182.2 227.1,182.7 217.6,178.6 210.5,158.6" fill="#658b91"/><path d="M219.5,164.1 L234.0,178.7" stroke="#aec3c2" stroke-width=".65" opacity=".7"/><polygon points="152.9,148.9 145.8,152.8 140.1,148.0 139.2,144.9 137.4,146.1 133.8,141.6 130.0,137.0 136.2,132.3 137.1,134.7 140.9,129.9 146.5,126.2 155.2,130.2" fill="#4e747b"/><path d="M148.6,140.0 L138.3,138.9" stroke="#aec3c2" stroke-width=".65" opacity=".7"/><polygon points="153.5,131.0 167.9,127.7 182.3,131.8 185.1,134.4 188.8,132.6 198.1,135.0 208.0,137.0 196.0,145.1 193.2,143.3 186.5,149.5 175.4,154.4 154.5,149.9" fill="#4e747b"/><path d="M166.0,140.6 L189.2,139.8" stroke="#aec3c2" stroke-width=".65" opacity=".7"/><polygon points="147.8,148.9 141.0,152.8 135.6,148.0 134.8,144.9 133.0,146.1 129.6,141.6 126.0,137.0 132.0,132.3 132.9,134.7 136.5,129.9 141.9,126.2 150.3,130.2" fill="#638890"/><path d="M143.9,140.0 L133.9,138.9" stroke="#aec3c2" stroke-width=".65" opacity=".7"/><polygon points="168.5,131.0 181.8,127.8 195.1,131.8 197.8,134.4 201.2,132.6 209.8,135.0 219.0,137.0 207.9,145.1 205.3,143.3 199.2,149.5 188.9,154.4 169.6,149.9" fill="#638890"/><path d="M180.1,140.6 L201.6,139.8" stroke="#aec3c2" stroke-width=".65" opacity=".7"/><polygon points="142.8,148.9 136.2,152.8 131.0,148.0 130.3,144.9 128.6,146.1 125.4,141.6 122.0,137.0 127.8,132.3 128.6,134.7 132.2,129.9 137.4,126.2 145.3,130.2" fill="#78999d"/><path d="M139.1,140.0 L129.6,138.9" stroke="#aec3c2" stroke-width=".65" opacity=".7"/><polygon points="183.4,131.0 195.7,127.8 207.9,131.8 210.4,134.4 213.5,132.6 221.6,135.0 230.0,137.0 219.9,145.1 217.5,143.3 211.9,149.5 202.5,154.4 184.6,149.9" fill="#78999d"/><path d="M194.2,140.6 L214.0,139.8" stroke="#aec3c2" stroke-width=".65" opacity=".7"/><polygon points="153.3,163.0 146.4,167.1 140.5,162.5 139.5,159.5 137.7,160.8 134.0,156.5 130.0,152.0 136.0,147.0 137.0,149.4 140.5,144.4 145.9,140.5 154.8,144.1" fill="#638890"/><path d="M148.7,154.2 L138.3,153.6" stroke="#aec3c2" stroke-width=".65" opacity=".7"/><polygon points="153.7,145.0 168.2,142.0 182.4,146.3 185.2,149.0 188.9,147.3 198.2,149.8 208.0,152.0 195.9,159.9 193.1,158.1 186.3,164.1 175.1,168.8 154.4,163.9" fill="#638890"/><path d="M165.9,154.8 L189.2,154.5" stroke="#aec3c2" stroke-width=".65" opacity=".7"/><polygon points="148.2,163.0 141.6,167.1 136.0,162.5 135.1,159.5 133.3,160.8 129.8,156.5 126.0,152.0 131.8,147.0 132.7,149.4 136.2,144.5 141.4,140.5 149.9,144.1" fill="#78999d"/><path d="M143.9,154.2 L134.0,153.6" stroke="#aec3c2" stroke-width=".65" opacity=".7"/><polygon points="168.6,145.0 182.0,142.0 195.2,146.3 197.8,149.0 201.3,147.3 209.9,149.8 219.0,152.0 207.8,159.9 205.2,158.1 199.0,164.1 188.6,168.8 169.4,163.9" fill="#78999d"/><path d="M180.1,154.8 L201.6,154.5" stroke="#aec3c2" stroke-width=".65" opacity=".7"/><polygon points="143.2,163.0 136.8,167.1 131.5,162.5 130.6,159.5 129.0,160.8 125.6,156.5 122.0,152.0 127.6,147.0 128.4,149.4 131.8,144.5 136.8,140.5 144.9,144.1" fill="#517980"/><path d="M139.1,154.2 L129.6,153.6" stroke="#aec3c2" stroke-width=".65" opacity=".7"/><polygon points="183.6,145.0 195.9,142.0 208.1,146.3 210.5,149.0 213.7,147.3 221.6,149.8 230.0,152.0 219.7,159.9 217.4,158.1 211.6,164.1 202.2,168.8 184.4,163.9" fill="#517980"/><path d="M194.2,154.8 L214.0,154.5" stroke="#aec3c2" stroke-width=".65" opacity=".7"/><g transform="translate(155 140) scale(1)" fill="#b77757" stroke="#8b563d" stroke-width=".8"><path d="M0,-12 Q-14,-15 -13,-4 L-4,7 L0,12 L5,5 L13,-5 Q11,-15 0,-12Z"/><path d="M-7,-8 L6,6 M6,-8 L-6,5" fill="none" stroke="#f1d9b6" stroke-width="2"/></g><g class="guide"><rect x="133" y="132" width="88" height="30" rx="6" fill="none" stroke="#d76c61" stroke-dasharray="4 4"/><text x="180" y="315" text-anchor="middle" fill="#a7544d" font-size="11">虚线：需被覆盖的区域，非成品纹样</text></g></g><g transform="translate(720 86)"><ellipse cx="180" cy="173" rx="67" ry="83" fill="#eee2d6" stroke="#c9b8aa"/><path d="M170 94 L180 81 L190 94" fill="#eee2d6" stroke="#c9b8aa"/><polygon points="163.4,95.4 142.2,108.3 122.5,121.3 118.3,123.5 116.2,129.6 108.9,142.6 103.0,158.0 104.3,133.3 107.1,130.0 108.8,116.8 118.1,100.9 152.0,86.1" fill="#4e747b"/><path d="M138.5,99.7 L111.9,126.1" stroke="#aec3c2" stroke-width=".65" opacity=".7"/><polygon points="156.0,97.5 136.8,114.2 119.1,130.7 115.2,133.6 114.0,140.1 108.6,154.5 105.0,171.0 102.7,145.9 105.0,142.1 104.7,128.5 111.7,110.9 143.4,90.1" fill="#638890"/><path d="M131.8,106.1 L109.2,137.3" stroke="#aec3c2" stroke-width=".65" opacity=".7"/><polygon points="148.5,99.6 131.5,120.1 115.8,140.0 112.4,143.7 112.0,150.7 108.4,166.4 107.0,184.0 101.4,158.5 103.2,154.2 101.2,140.2 105.9,120.9 134.9,94.1" fill="#78999d"/><path d="M125.4,112.6 L106.9,148.6" stroke="#aec3c2" stroke-width=".65" opacity=".7"/><polygon points="140.8,101.7 126.1,125.9 112.8,149.4 109.8,153.8 110.2,161.1 108.4,178.2 109.0,197.0 100.5,171.0 101.8,166.2 98.3,151.8 100.7,130.7 126.5,98.1" fill="#517980"/><path d="M119.2,119.0 L104.8,159.7" stroke="#aec3c2" stroke-width=".65" opacity=".7"/><polygon points="132.9,104.0 120.8,131.7 109.9,158.6 107.3,163.7 108.6,171.5 108.5,190.0 111.0,210.0 99.9,183.4 100.7,178.0 95.7,163.1 96.0,140.2 118.4,101.9" fill="#658b91"/><path d="M113.2,125.2 L103.0,170.7" stroke="#aec3c2" stroke-width=".65" opacity=".7"/><polygon points="178.8,97.0 168.3,101.5 156.2,100.4 153.3,98.6 151.1,101.2 143.6,101.7 136.0,103.0 142.4,91.8 144.9,92.6 148.2,85.3 155.3,78.6 172.9,80.2" fill="#4e747b"/><path d="M166.4,89.7 L148.8,94.7" stroke="#aec3c2" stroke-width=".65" opacity=".7"/><polygon points="179.1,96.9 166.1,102.7 151.5,103.0 148.1,101.5 145.3,104.4 136.3,105.8 127.0,108.0 135.2,95.8 138.3,96.3 142.5,88.4 151.4,80.7 172.6,80.3" fill="#638890"/><path d="M164.3,90.8 L142.9,98.0" stroke="#aec3c2" stroke-width=".65" opacity=".7"/><polygon points="179.2,96.9 163.9,104.0 146.9,105.6 143.0,104.4 139.5,107.6 128.9,109.8 118.0,113.0 128.1,99.7 131.6,100.0 136.9,91.4 147.6,82.7 172.4,80.4" fill="#78999d"/><path d="M162.3,91.9 L136.9,101.3" stroke="#aec3c2" stroke-width=".65" opacity=".7"/><polygon points="207.4,86.6 233.3,95.6 247.9,112.8 248.6,117.8 252.4,122.5 255.5,139.1 257.0,158.0 248.3,139.3 248.2,133.9 240.0,126.0 225.5,114.4 196.0,95.9" fill="#4e747b"/><path d="M221.5,99.7 L248.1,126.1" stroke="#aec3c2" stroke-width=".65" opacity=".7"/><polygon points="216.0,90.5 240.6,104.0 252.5,123.9 252.5,129.1 255.6,134.5 256.3,151.7 255.0,171.0 249.1,150.7 249.7,145.2 242.7,135.8 230.0,121.6 203.4,97.9" fill="#638890"/><path d="M228.2,106.1 L250.8,137.3" stroke="#aec3c2" stroke-width=".65" opacity=".7"/><polygon points="224.5,94.4 247.2,112.5 256.6,135.0 255.9,140.4 258.3,146.5 256.8,164.3 253.0,184.0 249.7,162.1 251.1,156.5 245.3,145.7 234.4,128.8 210.9,99.9" fill="#78999d"/><path d="M234.6,112.6 L253.1,148.6" stroke="#aec3c2" stroke-width=".65" opacity=".7"/><polygon points="232.8,98.3 253.4,120.9 260.2,146.0 258.9,151.5 260.6,158.3 257.0,176.8 251.0,197.0 250.2,173.4 252.2,167.7 247.6,155.5 238.7,136.0 218.5,101.9" fill="#517980"/><path d="M240.8,119.0 L255.2,159.7" stroke="#aec3c2" stroke-width=".65" opacity=".7"/><polygon points="240.9,102.0 259.2,128.9 263.4,156.7 261.5,162.4 262.5,169.9 257.0,189.2 249.0,210.0 250.7,184.7 253.2,178.9 249.9,165.1 243.0,143.2 226.4,104.1" fill="#658b91"/><path d="M246.8,125.2 L257.0,170.7" stroke="#aec3c2" stroke-width=".65" opacity=".7"/><polygon points="186.8,81.0 199.8,78.4 209.2,85.0 210.3,88.3 213.4,88.3 218.6,95.2 224.0,103.0 213.8,102.7 212.6,99.7 205.9,102.0 196.2,103.0 180.9,97.8" fill="#4e747b"/><path d="M193.6,89.7 L211.2,94.7" stroke="#aec3c2" stroke-width=".65" opacity=".7"/><polygon points="187.1,81.1 202.7,79.9 214.4,87.7 215.8,91.3 219.6,91.7 226.2,99.4 233.0,108.0 220.6,106.6 219.0,103.3 211.1,104.9 199.3,104.8 180.6,97.7" fill="#638890"/><path d="M195.7,90.8 L217.1,98.0" stroke="#aec3c2" stroke-width=".65" opacity=".7"/><polygon points="187.2,81.1 205.5,81.4 219.4,90.5 221.2,94.3 225.7,95.0 233.7,103.6 242.0,113.0 227.5,110.4 225.5,106.9 216.3,107.8 202.5,106.6 180.4,97.6" fill="#78999d"/><path d="M197.7,91.9 L223.1,101.3" stroke="#aec3c2" stroke-width=".65" opacity=".7"/><g transform="translate(180 88) scale(1)" fill="#b77757" stroke="#8b563d" stroke-width=".8"><path d="M0,-12 Q-14,-15 -13,-4 L-4,7 L0,12 L5,5 L13,-5 Q11,-15 0,-12Z"/><path d="M-7,-8 L6,6 M6,-8 L-6,5" fill="none" stroke="#f1d9b6" stroke-width="2"/></g><text x="180" y="56" text-anchor="middle" font-size="12" fill="#7a7166">鼻尖／正面</text><text x="180" y="282" text-anchor="middle" font-size="12" fill="#7a7166">后脑方向</text></g><text x="180" y="429" text-anchor="middle" font-size="14" fill="#314b50">正面</text><text x="540" y="429" text-anchor="middle" font-size="14" fill="#314b50">斜侧示意 · 远侧缩短</text><text x="900" y="429" text-anchor="middle" font-size="14" fill="#314b50">俯视 · 环覆路径</text><text x="30" y="455" font-size="11" fill="#8b8073">结构草图 · 非已验证成图 · 配色、饰品款式、羽片数量仅为示意</text></svg>